<svg width="45" height="45" viewBox="0 0 45 45" fill="none" xmlns="http://www.w3.org/2000/svg">
<path d="M22.5 45C34.9264 45 45 34.9264 45 22.5C45 10.0736 34.9264 0 22.5 0C10.0736 0 0 10.0736 0 22.5C0 34.9264 10.0736 45 22.5 45Z" fill="#3AA05B"/>
<path d="M31.9924 21.521H23.1674V13.103C23.1674 12.8105 23.0512 12.5299 22.8444 12.3231C22.6375 12.1162 22.357 12 22.0644 12C21.7719 12 21.4913 12.1162 21.2845 12.3231C21.0776 12.5299 20.9614 12.8105 20.9614 13.103V21.521H12.1324C11.9879 21.5101 11.8426 21.5291 11.7057 21.5769C11.5689 21.6247 11.4434 21.7003 11.337 21.7988C11.2307 21.8974 11.1459 22.0169 11.0879 22.1497C11.0299 22.2826 11 22.426 11 22.571C11 22.716 11.0299 22.8594 11.0879 22.9923C11.1459 23.1251 11.2307 23.2446 11.337 23.3432C11.4434 23.4417 11.5689 23.5173 11.7057 23.5651C11.8426 23.6129 11.9879 23.6319 12.1324 23.621H20.9604V32.039C20.9604 32.3315 21.0766 32.6121 21.2835 32.8189C21.4903 33.0258 21.7709 33.142 22.0634 33.142C22.356 33.142 22.6365 33.0258 22.8434 32.8189C23.0502 32.6121 23.1664 32.3315 23.1664 32.039V23.625H31.9924C32.137 23.6359 32.2823 23.6169 32.4191 23.5691C32.556 23.5213 32.6815 23.4457 32.7878 23.3472C32.8941 23.2486 32.9789 23.1291 33.0369 22.9963C33.0949 22.8634 33.1249 22.72 33.1249 22.575C33.1249 22.43 33.0949 22.2866 33.0369 22.1537C32.9789 22.0209 32.8941 21.9014 32.7878 21.8028C32.6815 21.7043 32.556 21.6287 32.4191 21.5809C32.2823 21.5331 32.137 21.5141 31.9924 21.525V21.521Z" fill="white"/>
</svg>
