<svg xmlns="http://www.w3.org/2000/svg" fill="none" viewBox="0 0 45 45"><path fill="#F25D52" d="M22.5 45a22.5 22.5 0 1 0 0-45 22.5 22.5 0 0 0 0 45Z"/><path fill="#fff" d="M29.97 13.96h-3.91v-.71a2.13 2.13 0 0 0-2.14-2.13h-2.84a2.13 2.13 0 0 0-2.14 2.13v.71h-3.91a1.78 1.78 0 0 0-1.78 1.78v1.42a.71.71 0 0 0 .71.72h17.08a.71.71 0 0 0 .71-.72v-1.42a1.78 1.78 0 0 0-1.78-1.78zm-9.6-.71a.71.71 0 0 1 .7-.71h2.85a.71.71 0 0 1 .71.7v.72h-4.26zM14.6 19.3a.22.22 0 0 0-.22.23l.59 12.32a2.13 2.13 0 0 0 2.13 2.03h10.8a2.13 2.13 0 0 0 2.13-2.03l.6-12.32a.22.22 0 0 0-.23-.23zm10.75 1.78a.71.71 0 1 1 1.42 0v9.25a.71.71 0 1 1-1.42 0zm-3.56 0a.71.71 0 0 1 1.42 0v9.25a.71.71 0 1 1-1.42 0zm-3.56 0a.71.71 0 0 1 1.42 0v9.25a.71.71 0 1 1-1.42 0z"/></svg>