<svg width="45" height="45" viewBox="0 0 45 45" fill="none" xmlns="http://www.w3.org/2000/svg">
<path d="M22.5 45C34.9264 45 45 34.9264 45 22.5C45 10.0736 34.9264 0 22.5 0C10.0736 0 0 10.0736 0 22.5C0 34.9264 10.0736 45 22.5 45Z" fill="#49DBDF"/>
<path d="M22.5 15.887C18.261 15.887 14.417 18.206 11.58 21.973C11.4673 22.1244 11.4065 22.3082 11.4065 22.497C11.4065 22.6857 11.4673 22.8695 11.58 23.021C14.417 26.793 18.261 29.112 22.5 29.112C26.739 29.112 30.583 26.793 33.42 23.026C33.5327 22.8745 33.5935 22.6907 33.5935 22.502C33.5935 22.3132 33.5327 22.1294 33.42 21.978C30.583 18.206 26.739 15.887 22.5 15.887ZM22.8 27.156C21.8532 27.2178 20.9101 26.9895 20.0964 26.5016C19.2827 26.0137 18.6371 25.2893 18.2456 24.4251C17.8541 23.5608 17.7354 22.5978 17.9053 21.6643C18.0752 20.7309 18.5257 19.8714 19.1966 19.2005C19.8675 18.5296 20.7269 18.0792 21.6604 17.9093C22.5938 17.7394 23.5569 17.8581 24.4211 18.2496C25.2854 18.641 26.0097 19.2867 26.4977 20.1004C26.9856 20.9141 27.2138 21.8572 27.152 22.804C27.0778 23.9326 26.5964 24.9959 25.7972 25.7964C24.9981 26.5968 23.9355 27.0799 22.807 27.156H22.8ZM22.659 25.005C22.1492 25.0374 21.6416 24.9137 21.2038 24.6503C20.7661 24.3869 20.419 23.9964 20.2089 23.5308C19.9987 23.0651 19.9355 22.5465 20.0276 22.044C20.1197 21.5415 20.3627 21.079 20.7244 20.7182C21.086 20.3573 21.549 20.1153 22.0517 20.0242C22.5544 19.9332 23.0728 19.9976 23.538 20.2087C24.0032 20.4198 24.393 20.7677 24.6555 21.206C24.9179 21.6443 25.0405 22.1522 25.007 22.662C24.9679 23.2705 24.7085 23.844 24.2773 24.2753C23.8461 24.7065 23.2726 24.9659 22.664 25.005H22.659Z" fill="white"/>
</svg>
